# xmcd CD database file
#
# Track frame offsets:
#	150
#	17986
#	38515
#	58370
#	70527
#	81025
#	94579
#	110874
#	124620
#	139142
#	152663
#	164665
#	179520
#	190387
#
# Disc length: 2816 seconds
#
# Revision: 0
# Processed by: cddbd v1.5.2PL0 Copyright (c) Steve Scherf et al.
# Submitted via: Feurio! 1.68 - http://www.feurio.com
#
DISCID=c20afe0e
DTITLE=Joe Sun - SUNDRIES
DYEAR=2006
DGENRE=Country
TTITLE0=Take It Easy
TTITLE1=Midnight Special
TTITLE2=Til I Gain Control Again
TTITLE3=Old Habits Die Hard
TTITLE4=It Don't Take Much
TTITLE5=Touch Every Star in the Sky
TTITLE6=On Eagle's Wings We'll Fly
TTITLE7=It's Too Late I Am Falling in Love with You
TTITLE8=aria (The Lady Who Played the Organ)
TTITLE9=I Ain't Crazy
TTITLE10=I Don't Get Started
TTITLE11=Rita Likes to Dance
TTITLE12=The Animal Song
TTITLE13=Chimes of Mayo
EXTD=
EXTT0=
EXTT1=
EXTT2=
EXTT3=
EXTT4=
EXTT5=
EXTT6=
EXTT7=
EXTT8=
EXTT9=
EXTT10=
EXTT11=
EXTT12=
EXTT13=
PLAYORDER=
